<svg fill="#000" aria-hidden="true"  version="1.1" xmlns="http://www.w3.org/2000/svg" xmlns:xlink="http://www.w3.org/1999/xlink">
  <defs>
    <symbol id="icon-Menu" viewBox="0 0 35 32">
      <path d="M34.783 5.565c0 3.074-2.492 5.565-5.565 5.565s-5.565-2.492-5.565-5.565c0-3.074 2.492-5.565 5.565-5.565s5.565 2.492 5.565 5.565z"></path>
      <path d="M34.783 26.435c0 3.074-2.492 5.565-5.565 5.565s-5.565-2.492-5.565-5.565c0-3.074 2.492-5.565 5.565-5.565s5.565 2.492 5.565 5.565z"></path>
      <path d="M11.13 5.565c0 3.074-2.492 5.565-5.565 5.565s-5.565-2.492-5.565-5.565c0-3.074 2.492-5.565 5.565-5.565s5.565 2.492 5.565 5.565z"></path>
      <path d="M11.13 26.435c0 3.074-2.492 5.565-5.565 5.565s-5.565-2.492-5.565-5.565c0-3.074 2.492-5.565 5.565-5.565s5.565 2.492 5.565 5.565z"></path>
    </symbol>

    <symbol id="icon-Star" viewBox="0 0 34 32">
      <path d="M15.253 1.174c0.691-1.399 2.685-1.399 3.376 0l3.406 6.902c0.274 0.556 0.804 0.941 1.417 1.030l7.616 1.107c1.544 0.224 2.16 2.122 1.043 3.211l-5.511 5.372c-0.444 0.432-0.646 1.055-0.541 1.666l1.301 7.586c0.264 1.538-1.35 2.71-2.731 1.984l-6.812-3.582c-0.548-0.288-1.204-0.288-1.752 0l-6.812 3.582c-1.381 0.726-2.995-0.447-2.731-1.984l1.301-7.586c0.105-0.611-0.098-1.234-0.541-1.666l-5.511-5.372c-1.117-1.089-0.501-2.986 1.043-3.211l7.616-1.107c0.613-0.089 1.143-0.474 1.417-1.030l3.406-6.902z"></path>
    </symbol>

    <symbol id="icon-insta" viewBox="0 0 32 32">
      <path d="M15.998 7.854c-2.102 0-4.118 0.835-5.605 2.322s-2.322 3.503-2.322 5.605c0 2.102 0.835 4.119 2.322 5.605s3.503 2.322 5.605 2.322c2.102 0 4.119-0.835 5.605-2.322s2.322-3.503 2.322-5.605c0-2.102-0.835-4.119-2.322-5.605s-3.503-2.322-5.605-2.322zM15.998 20.929c-1.366 0-2.676-0.543-3.641-1.508s-1.508-2.276-1.508-3.641c0-1.366 0.543-2.676 1.508-3.641s2.276-1.508 3.641-1.508c1.366 0 2.676 0.543 3.641 1.508s1.508 2.276 1.508 3.641c0 1.366-0.543 2.676-1.508 3.641s-2.276 1.508-3.642 1.508z"></path>
      <path d="M24.239 9.411c1.021 0 1.848-0.827 1.848-1.848s-0.827-1.848-1.848-1.848c-1.021 0-1.848 0.827-1.848 1.848s0.827 1.848 1.848 1.848z"></path>
      <path d="M30.628 5.684c-0.397-1.025-1.003-1.956-1.781-2.732s-1.708-1.383-2.733-1.78c-1.199-0.45-2.466-0.694-3.747-0.72-1.651-0.072-2.174-0.093-6.36-0.093s-4.723 0-6.36 0.093c-1.28 0.025-2.546 0.268-3.744 0.72-1.025 0.396-1.956 1.002-2.734 1.779s-1.384 1.708-1.78 2.733c-0.45 1.199-0.693 2.467-0.718 3.747-0.074 1.649-0.096 2.172-0.096 6.36 0 4.186 0 4.719 0.096 6.36 0.026 1.282 0.267 2.547 0.718 3.749 0.397 1.025 1.004 1.955 1.782 2.732s1.708 1.383 2.734 1.78c1.196 0.468 2.462 0.729 3.746 0.771 1.651 0.072 2.174 0.094 6.36 0.094s4.723 0 6.36-0.094c1.281-0.026 2.548-0.269 3.747-0.718 1.025-0.397 1.955-1.004 2.733-1.781s1.384-1.708 1.781-2.732c0.451-1.2 0.693-2.465 0.718-3.747 0.074-1.649 0.096-2.172 0.096-6.36s0-4.719-0.096-6.36c-0.020-1.299-0.264-2.585-0.722-3.801zM28.54 22.025c-0.011 0.988-0.191 1.967-0.533 2.894-0.257 0.667-0.652 1.272-1.157 1.777s-1.111 0.899-1.778 1.156c-0.917 0.34-1.885 0.52-2.863 0.533-1.629 0.075-2.088 0.094-6.264 0.094-4.179 0-4.606 0-6.266-0.094-0.977-0.012-1.945-0.192-2.861-0.533-0.669-0.255-1.277-0.649-1.785-1.154s-0.904-1.111-1.162-1.779c-0.337-0.917-0.517-1.884-0.533-2.861-0.074-1.629-0.091-2.088-0.091-6.264 0-4.178 0-4.605 0.091-6.266 0.011-0.987 0.191-1.966 0.533-2.892 0.523-1.353 1.594-2.417 2.947-2.935 0.916-0.339 1.884-0.519 2.861-0.533 1.63-0.074 2.088-0.094 6.266-0.094s4.606 0 6.264 0.094c0.978 0.012 1.946 0.192 2.863 0.533 0.667 0.258 1.272 0.652 1.778 1.157s0.9 1.111 1.157 1.778c0.337 0.917 0.517 1.884 0.533 2.861 0.074 1.63 0.093 2.088 0.093 6.266 0 4.176 0 4.625-0.074 6.264h-0.019v-0.002z"></path>
    </symbol>

    <symbol id="icon-be" viewBox="0 0 50 32">
      <path d="M13.927 0.646c1.414 0 2.686 0.122 3.852 0.372 1.159 0.247 2.148 0.655 2.983 1.219 0.823 0.564 1.466 1.313 1.93 2.254 0.449 0.929 0.672 2.090 0.672 3.463 0 1.488-0.336 2.731-1.010 3.722-0.679 0.994-1.68 1.807-3.014 2.436 1.817 0.526 3.163 1.445 4.056 2.75 0.898 1.318 1.337 2.894 1.337 4.742 0 1.5-0.286 2.789-0.859 3.871-0.553 1.066-1.355 1.983-2.338 2.674-1.018 0.709-2.155 1.229-3.358 1.536-1.26 0.331-2.558 0.497-3.862 0.494h-14.316v-29.534h13.927zM13.085 12.579c1.152 0 2.107-0.274 2.861-0.828 0.749-0.547 1.111-1.45 1.111-2.686 0-0.686-0.122-1.253-0.362-1.697-0.234-0.427-0.58-0.782-1.001-1.027-0.441-0.261-0.927-0.436-1.433-0.516-0.552-0.103-1.112-0.152-1.673-0.146h-6.084v6.9h6.581zM13.447 25.152c0.641 0 1.25-0.055 1.824-0.185 0.578-0.125 1.092-0.326 1.529-0.626 0.437-0.288 0.797-0.679 1.056-1.178 0.262-0.494 0.389-1.14 0.389-1.915 0-1.522-0.43-2.604-1.279-3.259-0.852-0.648-1.994-0.97-3.394-0.97h-7.068v8.136l6.943-0.002zM34.003 25.054c0.881 0.859 2.15 1.291 3.802 1.291 1.183 0 2.206-0.3 3.067-0.895 0.85-0.598 1.368-1.236 1.567-1.896h5.172c-0.83 2.573-2.090 4.411-3.814 5.518-1.702 1.111-3.773 1.663-6.192 1.663-1.685 0-3.202-0.271-4.56-0.809-1.304-0.508-2.482-1.292-3.454-2.299-0.956-1.031-1.694-2.243-2.172-3.564-0.525-1.461-0.785-3.005-0.768-4.558 0-1.598 0.266-3.094 0.79-4.474 0.497-1.334 1.259-2.553 2.242-3.583 0.972-1.008 2.124-1.802 3.466-2.386 1.411-0.593 2.929-0.889 4.459-0.869 1.81 0 3.391 0.35 4.75 1.056 1.317 0.674 2.46 1.645 3.336 2.837 0.871 1.183 1.493 2.539 1.879 4.058 0.386 1.517 0.521 3.101 0.41 4.759h-15.434c0.002 1.69 0.571 3.29 1.454 4.15zM40.752 13.819c-0.698-0.773-1.879-1.19-3.324-1.19-0.938 0-1.714 0.156-2.338 0.478-0.571 0.288-1.077 0.689-1.488 1.178-0.361 0.444-0.629 0.957-0.787 1.507-0.138 0.459-0.228 0.931-0.266 1.409h9.557c-0.139-1.498-0.653-2.604-1.354-3.382zM31.349 2.628h11.974v2.916h-11.974v-2.916z"></path>
    </symbol>

    <symbol id="icon-twitch" viewBox="0 0 29 32">
      <path d="M11.464 13.532c-0.897 0-1.604 0.786-1.604 1.746 0 0.957 0.723 1.746 1.604 1.746 0.895 0 1.602-0.79 1.602-1.746 0.018-0.962-0.707-1.746-1.602-1.746zM17.204 13.532c-0.897 0-1.604 0.786-1.604 1.746 0 0.957 0.723 1.746 1.604 1.746 0.895 0 1.602-0.79 1.602-1.746-0.002-0.962-0.707-1.746-1.602-1.746z"></path>
      <path d="M24.846 0.339h-21.072c-0.424 0.001-0.844 0.086-1.236 0.249s-0.747 0.402-1.046 0.703c-0.299 0.301-0.536 0.658-0.698 1.050s-0.244 0.813-0.243 1.237v21.259c0 1.793 1.447 3.239 3.223 3.239h17.831l-0.836-2.911 2.014 1.872 1.902 1.761 3.383 2.989v-28.209c0.001-0.424-0.081-0.845-0.243-1.237s-0.398-0.749-0.698-1.050c-0.299-0.301-0.655-0.54-1.046-0.703s-0.811-0.248-1.236-0.249zM18.775 20.875c0 0-0.566-0.675-1.036-1.276 2.059-0.583 2.845-1.87 2.845-1.87-0.646 0.424-1.258 0.725-1.809 0.93-2.007 0.84-4.216 1.069-6.353 0.659-0.789-0.155-1.563-0.382-2.311-0.679-0.394-0.15-0.778-0.327-1.147-0.531-0.048-0.035-0.094-0.048-0.141-0.079-0.025-0.012-0.047-0.029-0.065-0.050-0.283-0.156-0.44-0.265-0.44-0.265s0.755 1.258 2.753 1.855c-0.472 0.596-1.054 1.306-1.054 1.306-3.474-0.111-4.793-2.39-4.793-2.39 0-5.063 2.264-9.166 2.264-9.166 2.264-1.7 4.418-1.652 4.418-1.652l0.157 0.189c-2.83 0.819-4.136 2.061-4.136 2.061s0.348-0.189 0.929-0.455c1.682-0.738 3.017-0.943 3.569-0.991 0.094-0.015 0.174-0.031 0.268-0.031 2.726-0.367 5.499 0.151 7.908 1.478 0 0-1.243-1.178-3.916-1.996l0.22-0.252c0 0 2.155-0.048 4.418 1.652 0 0 2.264 4.103 2.264 9.166 0 0-1.336 2.278-4.812 2.388z"></path>
    </symbol>

    <symbol id="icon-ball" viewBox="0 0 31 32">
      <path d="M28.893 8.544c-1.351-2.342-3.296-4.286-5.638-5.636-2.374-1.383-4.964-2.075-7.771-2.075s-5.398 0.692-7.773 2.075c-2.374 1.383-4.253 3.262-5.636 5.636s-2.075 4.966-2.075 7.773c0 2.807 0.691 5.399 2.075 7.773 1.351 2.342 3.295 4.286 5.638 5.636 2.374 1.383 4.964 2.075 7.771 2.075s5.398-0.692 7.773-2.075c2.342-1.351 4.287-3.295 5.638-5.636 1.383-2.374 2.073-4.966 2.073-7.773s-0.691-5.399-2.075-7.773zM15.484 3.404c3.097 0 5.841 0.991 8.237 2.971-1.425 1.818-3.54 3.314-6.348 4.49-1.551-2.807-3.233-5.151-5.049-7.030 1.029-0.285 2.092-0.43 3.16-0.432zM5.435 8.265c1.132-1.438 2.565-2.611 4.198-3.437 1.877 1.86 3.6 4.181 5.172 6.968-3.097 0.929-6.37 1.394-9.818 1.394-0.887 0-1.558-0.020-2.013-0.062 0.475-1.774 1.313-3.43 2.462-4.862zM2.57 16.317c0-0.084 0.005-0.186 0.015-0.31s0.015-0.226 0.015-0.31c0.393 0.022 0.993 0.031 1.798 0.031 4.128 0 7.968-0.568 11.518-1.703 0.29 0.578 0.59 1.228 0.898 1.951-2.044 0.454-4.14 1.558-6.288 3.314s-3.715 3.603-4.706 5.543c-2.168-2.457-3.252-5.295-3.252-8.516zM15.484 29.231c-2.933 0-5.565-0.909-7.898-2.724 0.931-1.838 2.36-3.595 4.291-5.266 1.929-1.672 3.845-2.714 5.745-3.128 1.198 3.312 2.009 6.752 2.415 10.25-1.451 0.567-2.994 0.861-4.552 0.867zM26.446 23.099c-1.013 1.633-2.378 3.019-3.995 4.058-0.372-3.221-1.084-6.359-2.135-9.416 1.443-0.102 2.733-0.155 3.871-0.155 1.237 0 2.611 0.053 4.117 0.155-0.202 1.904-0.838 3.737-1.858 5.357zM24.526 15.357c-1.796 0-3.458 0.073-4.986 0.217-0.324-0.847-0.675-1.684-1.053-2.508 3.199-1.403 5.469-3.106 6.811-5.11 1.858 2.189 2.871 4.687 3.035 7.494-1.257-0.062-2.527-0.093-3.807-0.093z"></path>
    </symbol>
    
    <symbol id="icon-facebook" viewBox="0 0 32 32">
      <path d="M29.714 0.351h-27.429c-0.455 0-0.891 0.181-1.212 0.502s-0.502 0.758-0.502 1.212v27.429c0 0.455 0.181 0.891 0.502 1.212s0.758 0.502 1.212 0.502h14.769v-11.931h-4.008v-4.671h4.008v-3.429c0-3.986 2.434-6.158 6-6.158 1.198-0.003 2.398 0.058 3.591 0.183v4.149h-2.46c-1.934 0-2.311 0.922-2.311 2.271v2.974h4.623l-0.6 4.671h-4.025v11.94h7.841c0.455 0 0.891-0.181 1.212-0.502s0.502-0.758 0.502-1.212v-27.429c0-0.455-0.181-0.891-0.502-1.212s-0.758-0.502-1.212-0.502z"></path>
    </symbol>
  </defs>
</svg>
