<?xml version="1.0" standalone="no"?>
<!DOCTYPE svg PUBLIC "-//W3C//DTD SVG 20010904//EN"
 "http://www.w3.org/TR/2001/REC-SVG-20010904/DTD/svg10.dtd">
<svg version="1.0" xmlns="http://www.w3.org/2000/svg"
 width="100.000000pt" height="100.000000pt" viewBox="0 0 100.000000 100.000000"
 preserveAspectRatio="xMidYMid meet">
<metadata>
Created by potrace 1.14, written by Peter Selinger 2001-2017
</metadata>
<g transform="translate(0.000000,100.000000) scale(0.100000,-0.100000)"
fill="#000000" stroke="none">
<path d="M388 945 c-82 -22 -141 -57 -208 -124 -133 -134 -172 -307 -108 -478
66 -179 222 -292 414 -299 416 -16 634 490 336 781 -117 115 -279 160 -434
120z m265 -55 c203 -77 312 -302 248 -510 -45 -146 -157 -253 -302 -288 -58
-15 -182 -9 -235 11 -174 64 -285 227 -279 409 6 187 128 343 307 393 71 20
187 13 261 -15z"/>
<path d="M429 838 c-40 -39 -79 -112 -67 -122 1 -2 28 -6 59 -9 l57 -6 3 32
c2 18 2 59 -1 92 l-5 60 -46 -47z"/>
<path d="M520 785 l0 -85 57 6 c31 3 61 7 65 10 11 7 -39 102 -69 130 -45 42
-53 33 -53 -61z"/>
<path d="M334 839 c-48 -26 -104 -67 -104 -78 0 -7 58 -31 77 -31 6 0 16 15
24 33 7 17 21 45 32 60 10 16 17 30 15 32 -2 3 -22 -5 -44 -16z"/>
<path d="M654 797 c17 -34 32 -64 33 -66 6 -10 84 21 80 32 -5 17 -68 65 -108
81 l-36 15 31 -62z"/>
<path d="M752 705 c-43 -16 -52 -24 -48 -40 3 -11 8 -48 12 -82 l7 -63 79 0
80 0 -7 43 c-7 44 -35 115 -57 145 -12 17 -15 17 -66 -3z"/>
<path d="M178 698 c-20 -32 -44 -96 -52 -141 l-7 -38 82 3 82 3 3 39 c1 21 5
58 8 81 l7 42 -43 16 c-56 22 -63 21 -80 -5z"/>
<path d="M336 642 c-4 -20 -8 -56 -11 -79 l-4 -43 80 0 79 0 1 43 c1 43 -1 90
-5 94 -1 1 -27 5 -57 8 -29 4 -59 8 -66 10 -7 2 -14 -11 -17 -33z"/>
<path d="M649 675 c-4 -4 -33 -7 -116 -14 -9 -1 -13 -22 -13 -71 l0 -70 81 0
82 0 -7 53 c-10 89 -17 113 -27 102z"/>
<path d="M126 448 c6 -41 32 -115 52 -145 14 -23 46 -31 56 -14 3 4 19 11 36
15 30 6 31 6 25 53 -7 57 -13 105 -14 116 -1 4 -37 7 -80 7 l-79 0 4 -32z"/>
<path d="M325 426 c6 -68 20 -107 37 -101 7 2 33 6 58 9 25 2 48 5 53 5 4 1 7
33 7 71 l0 70 -80 0 -79 0 4 -54z"/>
<path d="M520 407 l0 -73 30 2 c16 1 45 -2 65 -6 45 -10 53 0 61 83 l6 67 -81
0 -81 0 0 -73z"/>
<path d="M719 453 c-1 -35 -4 -58 -12 -103 -7 -35 -7 -35 48 -57 l55 -21 30
61 c16 34 32 81 36 105 l7 42 -82 0 -81 0 -1 -27z"/>
<path d="M400 292 c-14 -2 -29 -7 -33 -12 -20 -18 66 -150 98 -150 15 0 22 49
17 121 -4 49 -11 53 -82 41z"/>
<path d="M520 209 l0 -91 28 18 c15 9 33 25 40 33 25 31 62 110 54 115 -5 3
-34 8 -65 10 l-57 6 0 -91z"/>
<path d="M258 258 c-16 -5 -28 -13 -28 -18 0 -13 74 -69 114 -85 36 -15 48 -7
22 15 -8 6 -23 31 -32 56 -18 46 -27 50 -76 32z"/>
<path d="M654 204 c-17 -35 -29 -64 -27 -64 24 0 143 83 143 100 0 8 -55 30
-74 29 -6 0 -25 -29 -42 -65z"/>
</g>
</svg>
